<?xml version="1.0" encoding="UTF-8"?>
<svg version="1.1" xmlns="http://www.w3.org/2000/svg" width="677" height="369">
<path d="M0 0 C0.69996094 0.35449219 1.39992188 0.70898438 2.12109375 1.07421875 C12.96725532 7.77642775 17.90839066 24.53306937 22 36 C22.4434375 37.15628906 22.886875 38.31257813 23.34375 39.50390625 C24.18286529 43.97419305 23.18686864 45.93747484 21.125 49.9375 C20.55007813 51.08089844 19.97515625 52.22429687 19.3828125 53.40234375 C18.92648437 54.25957031 18.47015625 55.11679688 18 56 C14.37069234 54.79023078 13.72415393 53.30676563 11.96826172 50.03271484 C10.38784 46.71486532 9.2159239 43.29746517 8.0625 39.8125 C7.54515725 38.31044236 7.02561042 36.80914212 6.50390625 35.30859375 C6.25012207 34.57753418 5.99633789 33.84647461 5.73486328 33.09326172 C1.28037977 19.98233903 1.28037977 19.98233903 -8.375 10.5625 C-15.00017264 9.14282015 -21.07662928 9.60156841 -27 13 C-30.1568397 16.66600739 -30.61671394 20.25314958 -31 25 C-30.27468193 28.56681098 -30.27468193 28.56681098 -28.9375 32.125 C-28.70562988 32.78258301 -28.47375977 33.44016602 -28.23486328 34.11767578 C-26.39062177 39.22167885 -24.2112209 44.12890143 -21.8671875 49.0234375 C-19.28071598 54.45648898 -16.91085664 59.98750842 -14.5 65.5 C-9.543427 79.60994385 -9.543427 79.60994385 -2 92 C0.87237733 92.58442963 0.87237733 92.58442963 4 92 C7.93410445 87.82746497 9.48041269 82.40672771 11.44921875 77.09765625 C13.35281484 71.99859989 15.43217318 66.97165597 17.5 61.9375 C17.89372803 60.9779541 18.28745605 60.0184082 18.69311523 59.02978516 C21.08241042 53.21484987 23.481171 47.40395543 25.91015625 41.60546875 C26.63146245 39.88105572 27.34769054 38.15450898 28.05859375 36.42578125 C29.07542243 33.95935596 30.10873452 31.50043694 31.14697266 29.04296875 C31.80021861 27.478469 32.44396332 25.90999902 33.08349609 24.33984375 C34.33089751 21.28202323 35.60192128 18.23470946 36.875 15.1875 C37.47284302 13.70092896 37.47284302 13.70092896 38.08276367 12.18432617 C40.6596614 6.08678375 43.47373255 0.88328221 49 -3 C53.73584876 -4.58938031 57.62831962 -4.49472796 62.25 -2.5625 C68.36606057 1.02445401 70.78091768 6.55826049 72.625 13.1875 C75.23445626 24.86371104 76.58314727 36.8621591 77.8125 48.75 C78.92121398 59.23675317 81.03143404 69.59530928 82.96801758 79.95410156 C83.10080612 80.66613235 83.23359467 81.37816315 83.3704071 82.11177063 C83.73833204 84.07941329 84.10955262 86.04643887 84.48095703 88.01342773 C85 91 85 91 85 93 C86.32 93 87.64 93 89 93 C89.27070313 92.15953125 89.54140625 91.3190625 89.8203125 90.453125 C91.05646278 86.83472483 92.43944032 83.29223098 93.875 79.75 C94.14256104 79.08452148 94.41012207 78.41904297 94.68579102 77.73339844 C95.79502679 74.97551545 96.90996352 72.22016467 98.03515625 69.46875 C100.93379028 62.34137283 103.55444848 55.11351709 106.203125 47.890625 C108.30681439 42.15615693 110.44123758 36.43358434 112.59765625 30.71875 C113.5080305 28.30460993 114.41205638 25.88806278 115.30859375 23.46875 C123.48086735 1.67602041 123.48086735 1.67602041 133.8125 -3.375 C141.74425137 -4.93024537 147.66147739 -4.47024145 154.8046875 -0.484375 C160.02464838 3.04513592 163.24346133 7.9428295 165 14 C165.44135793 17.87235204 165.51060151 21.73014212 165.5625 25.625 C165.59708336 27.65901403 165.63977054 29.69290991 165.69140625 31.7265625 C165.70989624 33.06581787 165.70989624 33.06581787 165.72875977 34.43212891 C166.02957179 37.27996045 166.75794991 39.42648557 168 42 C169.67625949 43.41853185 169.67625949 43.41853185 171.625 44.3125 C172.73875 44.869375 173.8525 45.42625 175 46 C175 49.3 175 52.6 175 56 C169.25 59 169.25 59 167 59 C166.17328643 62.62301135 165.86679071 65.99829489 165.82421875 69.7109375 C165.80037109 70.79117188 165.77652344 71.87140625 165.75195312 72.984375 C165.7091365 75.236789 165.67780349 77.48945185 165.65820312 79.7421875 C165.48793215 86.39463507 164.89797709 90.55907364 161 96 C160.443125 96.886875 159.88625 97.77375 159.3125 98.6875 C153.50366575 104.49633425 145.58454435 106.02068103 137.625 106.0625 C136.42875 106.041875 135.2325 106.02125 134 106 C132.8101694 103.6203388 132.86650034 102.08514265 132.875 99.4375 C132.87242187 98.63183594 132.86984375 97.82617188 132.8671875 96.99609375 C133 95 133 95 134 94 C137.29123558 93.4605275 140.59204015 93.0338661 143.8984375 92.59765625 C147.15204814 92.1783109 147.15204814 92.1783109 150 90 C151.00419882 86.98740353 151.15235348 84.85591295 151.2109375 81.703125 C151.23929688 80.6615625 151.26765625 79.62 151.296875 78.546875 C151.3485842 76.36474691 151.39296389 74.18243172 151.4296875 72 C151.6659914 64.00505129 152.71841979 58.28759548 158 52 C157.00739453 50.00420276 156.00924889 48.01720704 154.95385742 46.05371094 C151.81174613 39.77689375 151.37973879 34.19800861 151.3125 27.25 C151.27023951 25.23430283 151.22477938 23.21866964 151.17578125 21.203125 C151.15898315 19.88296387 151.15898315 19.88296387 151.1418457 18.53613281 C150.99673506 15.94162451 150.56941609 13.53238068 150 11 C146.10317728 9.70105909 142.04740624 9.32947162 138 10 C133.12925134 13.21026616 131.85791911 17.5415817 130.09765625 22.84375 C128.89721855 26.2955424 127.47552484 29.59445625 126 32.9375 C123.772409 38.06871708 121.88768044 43.18621467 120.1796875 48.5078125 C118.03008001 54.87122009 115.56668682 61.11765229 113.1484375 67.3828125 C111.69476423 71.15496919 110.28756739 74.94012919 108.9140625 78.7421875 C108.40117676 80.14223022 108.40117676 80.14223022 107.87792969 81.57055664 C107.22999868 83.34195711 106.59190774 85.11700198 105.96582031 86.89624023 C103.31102103 94.08454322 99.85205009 100.60077147 93.0625 104.5625 C89.06316007 106.27650283 86.22637426 106.25225904 82 105 C75.96039002 101.92098315 73.29695757 97.77022549 71.16015625 91.55859375 C69.09068557 84.48532829 67.98552598 77.29289229 67 70 C66.60167969 71.59328125 66.60167969 71.59328125 66.1953125 73.21875 C64.0703125 81.71875 64.0703125 81.71875 63.53320312 83.85449219 C63.17498418 85.295897 62.82483484 86.73932916 62.48242188 88.18457031 C60.95091069 94.5796643 59.34509567 99.01969699 54.1875 103.375 C49.85290527 105.58479339 46.21799214 106.59507106 41.4375 105.3125 C35.08530591 101.8920878 31.92849444 99.13920659 29.0625 92.625 C28.74732422 91.97789062 28.43214844 91.33078125 28.10742188 90.6640625 C26.13458347 86.34385124 25.64515673 83.54929023 27 79 C28.19140625 76.2265625 28.19140625 76.2265625 29.5625 73.625 C30.01753906 72.75101562 30.47257812 71.87703125 30.94140625 70.9765625 C31.46541016 69.99816406 31.46541016 69.99816406 32 69 C35 70 35 70 36.24609375 72.37109375 C36.63925781 73.38300781 37.03242188 74.39492187 37.4375 75.4375 C37.86289062 76.51386719 38.28828125 77.59023437 38.7265625 78.69921875 C39.14679688 79.78847656 39.56703125 80.87773437 40 82 C40.7689531 83.91742177 41.53958998 85.83416983 42.3125 87.75 C42.87590512 89.16630695 43.43877475 90.58282785 44 92 C44.99 92 45.98 92 47 92 C51.19100983 77.98051579 54.31794762 63.79033911 57.27001953 49.46362305 C57.77666929 47.05966315 58.30526914 44.66026603 58.85107422 42.26489258 C59.12709473 41.04439209 59.40311523 39.8238916 59.6875 38.56640625 C59.94144531 37.47013916 60.19539063 36.37387207 60.45703125 35.24438477 C61.93076032 26.43845597 60.19796001 18.20346264 57 10 C53.82282603 10.69056322 53.82282603 10.69056322 52.60546875 13.4140625 C51.90357422 15.00347656 51.90357422 15.00347656 51.1875 16.625 C50.66671875 17.80320312 50.1459375 18.98140625 49.609375 20.1953125 C46.01910867 28.61461743 42.70583566 37.13875953 39.4375 45.6875 C37.5479521 50.62297527 35.5660586 55.50770104 33.5078125 60.375 C32.28956885 63.30383447 31.10241735 66.24036971 29.9296875 69.1875 C17.88507413 99.32752605 17.88507413 99.32752605 10.80078125 103.203125 C4.13512514 106.00751407 -0.2456685 106.81379121 -7.02734375 104.2265625 C-15.99148099 99.64986287 -19.74832579 89.26488837 -23.1015625 80.30859375 C-24.20956203 77.46151671 -25.55167552 74.78372423 -26.97265625 72.08203125 C-29.59967445 66.75807422 -31.71621879 61.21281299 -33.875 55.6875 C-35.64282299 51.19308176 -37.50811173 46.84729237 -39.75 42.5625 C-44.48207037 33.31137851 -45.4651834 23.75342752 -42.8125 13.625 C-41.37360999 9.35561743 -39.54766165 6.87191657 -36 4 C-35.278125 3.319375 -34.55625 2.63875 -33.8125 1.9375 C-22.91679347 -5.56843117 -11.64997145 -6.12644576 0 0 Z " fill="#76448F" transform="translate(273,102)"/>
<path d="M0 0 C0.69996094 0.35449219 1.39992188 0.70898438 2.12109375 1.07421875 C12.96725532 7.77642775 17.90839066 24.53306937 22 36 C22.4434375 37.15628906 22.886875 38.31257813 23.34375 39.50390625 C24.18286529 43.97419305 23.18686864 45.93747484 21.125 49.9375 C20.55007813 51.08089844 19.97515625 52.22429687 19.3828125 53.40234375 C18.92648437 54.25957031 18.47015625 55.11679688 18 56 C14.37069234 54.79023078 13.72415393 53.30676563 11.96826172 50.03271484 C10.38784 46.71486532 9.2159239 43.29746517 8.0625 39.8125 C7.54515725 38.31044236 7.02561042 36.80914212 6.50390625 35.30859375 C6.25012207 34.57753418 5.99633789 33.84647461 5.73486328 33.09326172 C1.28037977 19.98233903 1.28037977 19.98233903 -8.375 10.5625 C-15.00017264 9.14282015 -21.07662928 9.60156841 -27 13 C-30.1568397 16.66600739 -30.61671394 20.25314958 -31 25 C-30.27468193 28.56681098 -30.27468193 28.56681098 -28.9375 32.125 C-28.70562988 32.78258301 -28.47375977 33.44016602 -28.23486328 34.11767578 C-26.39062177 39.22167885 -24.2112209 44.12890143 -21.8671875 49.0234375 C-19.28071598 54.45648898 -16.91085664 59.98750842 -14.5 65.5 C-9.543427 79.60994385 -9.543427 79.60994385 -2 92 C0.87237733 92.58442963 0.87237733 92.58442963 4 92 C7.93410445 87.82746497 9.48041269 82.40672771 11.44921875 77.09765625 C14.41878776 69.14323783 17.74768027 61.32329191 20.98242188 53.47412109 C21.83218061 51.40803304 22.67606768 49.33977671 23.515625 47.26953125 C26.0677694 41.02646916 28.88855983 34.98455727 32 29 C32.66 29 33.32 29 34 29 C34.33 27.35 34.66 25.7 35 24 C35.66 24.33 36.32 24.66 37 25 C37 25.66 37 26.32 37 27 C38.65 27 40.3 27 42 27 C45.31148608 37.45857834 37.55664941 50.84475094 33.54296875 60.3046875 C32.299269 63.25352739 31.10894449 66.22168926 29.92578125 69.1953125 C17.8887331 99.32552434 17.8887331 99.32552434 10.80078125 103.203125 C4.13512514 106.00751407 -0.2456685 106.81379121 -7.02734375 104.2265625 C-15.99148099 99.64986287 -19.74832579 89.26488837 -23.1015625 80.30859375 C-24.20956203 77.46151671 -25.55167552 74.78372423 -26.97265625 72.08203125 C-29.59967445 66.75807422 -31.71621879 61.21281299 -33.875 55.6875 C-35.64282299 51.19308176 -37.50811173 46.84729237 -39.75 42.5625 C-44.48207037 33.31137851 -45.4651834 23.75342752 -42.8125 13.625 C-41.37360999 9.35561743 -39.54766165 6.87191657 -36 4 C-35.278125 3.319375 -34.55625 2.63875 -33.8125 1.9375 C-22.91679347 -5.56843117 -11.64997145 -6.12644576 0 0 Z " fill="#381780" transform="translate(273,102)"/>
<path d="M0 0 C4.65323713 4.05210124 7.60442299 9.52931702 8.30102539 15.64111328 C8.44616743 18.63734976 8.52253254 21.62553722 8.5625 24.625 C8.59708336 26.65901403 8.63977054 28.69290991 8.69140625 30.7265625 C8.70373291 31.61939941 8.71605957 32.51223633 8.72875977 33.43212891 C9.02957179 36.27996045 9.75794991 38.42648557 11 41 C12.67625949 42.41853185 12.67625949 42.41853185 14.625 43.3125 C15.73875 43.869375 16.8525 44.42625 18 45 C18 48.3 18 51.6 18 55 C12.25 58 12.25 58 10 58 C9.17328643 61.62301135 8.86679071 64.99829489 8.82421875 68.7109375 C8.80037109 69.79117188 8.77652344 70.87140625 8.75195312 71.984375 C8.7091365 74.236789 8.67780349 76.48945185 8.65820312 78.7421875 C8.48793215 85.39463507 7.89797709 89.55907364 4 95 C3.443125 95.886875 2.88625 96.77375 2.3125 97.6875 C-3.49633425 103.49633425 -11.41545565 105.02068103 -19.375 105.0625 C-20.57125 105.041875 -21.7675 105.02125 -23 105 C-24.1898306 102.6203388 -24.13349966 101.08514265 -24.125 98.4375 C-24.12886719 97.22900391 -24.12886719 97.22900391 -24.1328125 95.99609375 C-24 94 -24 94 -23 93 C-19.70876442 92.4605275 -16.40795985 92.0338661 -13.1015625 91.59765625 C-9.84795186 91.1783109 -9.84795186 91.1783109 -7 89 C-5.99580118 85.98740353 -5.84764652 83.85591295 -5.7890625 80.703125 C-5.74652344 79.14078125 -5.74652344 79.14078125 -5.703125 77.546875 C-5.6514158 75.36474691 -5.60703611 73.18243172 -5.5703125 71 C-5.3340086 63.00505129 -4.28158021 57.28759548 1 51 C0.00739453 49.00420276 -0.99075111 47.01720704 -2.04614258 45.05371094 C-5.18825387 38.77689375 -5.62026121 33.19800861 -5.6875 26.25 C-5.72976049 24.23430283 -5.77522062 22.21866964 -5.82421875 20.203125 C-5.84101685 18.88296387 -5.84101685 18.88296387 -5.8581543 17.53613281 C-6.00326494 14.94162451 -6.43058391 12.53238068 -7 10 C-10.89682272 8.70105909 -14.95259376 8.32947162 -19 9 C-23.91128271 12.23698179 -25.23720668 16.70825148 -27.01953125 22.0625 C-27.99558012 24.98675797 -29.09335805 27.83039146 -30.25 30.6875 C-30.58515625 31.51636719 -30.9203125 32.34523437 -31.265625 33.19921875 C-31.50796875 33.79347656 -31.7503125 34.38773438 -32 35 C-32.33 34.34 -32.66 33.68 -33 33 C-33.66 33 -34.32 33 -35 33 C-35 33.99 -35 34.98 -35 36 C-35.66 35.67 -36.32 35.34 -37 35 C-37 34.34 -37 33.68 -37 33 C-37.66 32.34 -38.32 31.68 -39 31 C-39.93312508 27.69164744 -40.10773342 26.32320026 -39 23 C-39.66 23 -40.32 23 -41 23 C-41.33 23.66 -41.66 24.32 -42 25 C-40.6631969 16.30231908 -36.56306354 5.63897306 -29.9375 -0.375 C-20.28881841 -7.44086051 -9.65845547 -6.53062826 0 0 Z " fill="#81A6B0" transform="translate(430,103)"/>
<path d="M0 0 C0.33 0 0.66 0 1 0 C1.16874707 1.91648462 1.33491643 3.83319633 1.5 5.75 C1.5928125 6.81734375 1.685625 7.8846875 1.78125 8.984375 C1.95052283 11.3179218 2 13.66032182 2 16 C2.495 16.99 2.495 16.99 3 18 C4.32 17.67 5.64 17.34 7 17 C7.76049833 28.78772412 5.75618095 44.57533826 -2 54 C-6.12134453 57.58377785 -9.54743677 58.80172497 -15 59 C-19.54964134 57.77936452 -24.39121015 55.27089353 -27.15795898 51.36547852 C-28.18212003 49.48437152 -29.07505915 47.58526824 -29.9375 45.625 C-30.25267578 44.97789062 -30.56785156 44.33078125 -30.89257812 43.6640625 C-32.86541653 39.34385124 -33.35484327 36.54929023 -32 32 C-30.80859375 29.2265625 -30.80859375 29.2265625 -29.4375 26.625 C-28.75494141 25.31402344 -28.75494141 25.31402344 -28.05859375 23.9765625 C-27.70925781 23.32429688 -27.35992187 22.67203125 -27 22 C-24 23 -24 23 -22.75390625 25.37109375 C-22.36074219 26.38300781 -21.96757812 27.39492187 -21.5625 28.4375 C-21.13710938 29.51386719 -20.71171875 30.59023437 -20.2734375 31.69921875 C-19.64308594 33.33310547 -19.64308594 33.33310547 -19 35 C-18.2310469 36.91742177 -17.46041002 38.83416983 -16.6875 40.75 C-16.12409488 42.16630695 -15.56122525 43.58282785 -15 45 C-14.01 45 -13.02 45 -12 45 C-8.019535 31.11635444 -8.019535 31.11635444 -5 17 C-4.34 17 -3.68 17 -3 17 C-1.65155132 11.3443706 -0.63065155 5.7809725 0 0 Z " fill="#4D2887" transform="translate(332,149)"/>
<path d="M0 0 C7.92991334 -0.54273171 13.9375506 0.2860241 21 4 C21.69996094 4.35449219 22.39992188 4.70898438 23.12109375 5.07421875 C33.96725532 11.77642775 38.90839066 28.53306937 43 40 C43.4434375 41.15628906 43.886875 42.31257813 44.34375 43.50390625 C45.18286529 47.97419305 44.18686864 49.93747484 42.125 53.9375 C41.55007813 55.08089844 40.97515625 56.22429687 40.3828125 57.40234375 C39.92648437 58.25957031 39.47015625 59.11679688 39 60 C35.37069234 58.79023078 34.72415393 57.30676563 32.96826172 54.03271484 C31.38784 50.71486532 30.2159239 47.29746517 29.0625 43.8125 C28.54515725 42.31044236 28.02561042 40.80914212 27.50390625 39.30859375 C27.25012207 38.57753418 26.99633789 37.84647461 26.73486328 37.09326172 C22.35901689 23.9903566 22.35901689 23.9903566 12.6875 14.6875 C8.81070137 13.69576082 4.92023184 12.80283615 1 12 C1.33 11.34 1.66 10.68 2 10 C7.75 9.875 7.75 9.875 10 11 C10.33 10.34 10.66 9.68 11 9 C11.350625 8.319375 11.70125 7.63875 12.0625 6.9375 C13.07259349 5.20870628 13.07259349 5.20870628 13 4 C6.07 3.505 6.07 3.505 -1 3 C-0.67 2.01 -0.34 1.02 0 0 Z " fill="#61398A" transform="translate(252,98)"/>
<path d="M0 0 C0.66 0.33 1.32 0.66 2 1 C2 1.66 2 2.32 2 3 C3.65 3 5.3 3 7 3 C10.30965221 13.45278648 2.56366921 26.81596958 -1.44140625 36.2734375 C-2.7296086 39.32909196 -3.97456061 42.40116123 -5.21484375 45.4765625 C-5.80906128 46.9454895 -5.80906128 46.9454895 -6.4152832 48.4440918 C-7.20993474 50.41043336 -8.00153586 52.37801097 -8.78979492 54.34692383 C-10.58511624 58.77694255 -12.33542813 63.0031422 -15 67 C-15.268125 66.38125 -15.53625 65.7625 -15.8125 65.125 C-16.95556848 62.7004767 -16.95556848 62.7004767 -20 61 C-20.99 61.495 -20.99 61.495 -22 62 C-21.47731534 59.23723823 -20.89130413 56.6739124 -20 54 C-20.99 54 -21.98 54 -23 54 C-23 55.32 -23 56.64 -23 58 C-23.66 58 -24.32 58 -25 58 C-22.86581871 51.25212942 -20.33667151 44.72233285 -17.625 38.1875 C-17.02510254 36.7339209 -17.02510254 36.7339209 -16.41308594 35.25097656 C-15.62656476 33.34633023 -14.83885189 31.44217547 -14.04980469 29.53857422 C-13.18466813 27.44655332 -12.32713725 25.351872 -11.4765625 23.25390625 C-8.92916066 17.01520556 -6.10871036 10.97930674 -3 5 C-2.34 5 -1.68 5 -1 5 C-0.67 3.35 -0.34 1.7 0 0 Z " fill="#4F2A85" transform="translate(308,126)"/>
<path d="M0 0 C3.01357259 2.75950089 5.69803771 6.09411314 7 10 C6.625 12.25 6.625 12.25 6 14 C5.01 14 4.02 14 3 14 C2.505 13.01 2.505 13.01 2 12 C1.34 12 0.68 12 0 12 C-0.66 11.34 -1.32 10.68 -2 10 C-2.66 10.33 -3.32 10.66 -4 11 C-3.83250244 11.71567139 -3.66500488 12.43134277 -3.49243164 13.16870117 C-2.99931515 16.00393764 -2.9701538 18.43292216 -3.12109375 21.30078125 C-3.16943359 22.27724609 -3.21777344 23.25371094 -3.26757812 24.25976562 C-3.32365234 25.26716797 -3.37972656 26.27457031 -3.4375 27.3125 C-3.48970703 28.33923828 -3.54191406 29.36597656 -3.59570312 30.42382812 C-3.72492666 32.94956087 -3.85987291 35.47485261 -4 38 C-4.33 38 -4.66 38 -5 38 C-5.02505615 37.3294458 -5.0501123 36.6588916 -5.07592773 35.96801758 C-5.19230801 32.9160041 -5.31484348 29.86426742 -5.4375 26.8125 C-5.47681641 25.75740234 -5.51613281 24.70230469 -5.55664062 23.61523438 C-5.59853516 22.59365234 -5.64042969 21.57207031 -5.68359375 20.51953125 C-5.73858032 19.11344604 -5.73858032 19.11344604 -5.79467773 17.67895508 C-5.99625599 15.04885018 -6.42678321 12.57233586 -7 10 C-10.89682272 8.70105909 -14.95259376 8.32947162 -19 9 C-23.91128271 12.23698179 -25.23720668 16.70825148 -27.01953125 22.0625 C-27.99558012 24.98675797 -29.09335805 27.83039146 -30.25 30.6875 C-30.58515625 31.51636719 -30.9203125 32.34523437 -31.265625 33.19921875 C-31.50796875 33.79347656 -31.7503125 34.38773438 -32 35 C-32.33 34.34 -32.66 33.68 -33 33 C-33.66 33 -34.32 33 -35 33 C-35 33.99 -35 34.98 -35 36 C-35.66 35.67 -36.32 35.34 -37 35 C-37 34.34 -37 33.68 -37 33 C-37.66 32.34 -38.32 31.68 -39 31 C-39.93312508 27.69164744 -40.10773342 26.32320026 -39 23 C-39.66 23 -40.32 23 -41 23 C-41.33 23.66 -41.66 24.32 -42 25 C-40.6631969 16.30231908 -36.56306354 5.63897306 -29.9375 -0.375 C-20.30839296 -7.42652581 -9.63520135 -6.55467516 0 0 Z " fill="#8194AA" transform="translate(430,103)"/>
<path d="M0 0 C0.66 0.33 1.32 0.66 2 1 C2.99 0.67 3.98 0.34 5 0 C5.0995024 4.28663998 5.1717631 8.57265331 5.21972656 12.86010742 C5.23973822 14.31595584 5.26695677 15.77172494 5.30175781 17.22729492 C5.64725937 32.05845718 5.64725937 32.05845718 1 38 C0.443125 38.886875 -0.11375 39.77375 -0.6875 40.6875 C-6.49633425 46.49633425 -14.41545565 48.02068103 -22.375 48.0625 C-23.57125 48.041875 -24.7675 48.02125 -26 48 C-27.1898306 45.6203388 -27.13349966 44.08514265 -27.125 41.4375 C-27.12886719 40.22900391 -27.12886719 40.22900391 -27.1328125 38.99609375 C-27 37 -27 37 -26 36 C-22.74156471 35.45919972 -19.47317118 35.03393882 -16.19921875 34.59765625 C-13.38291267 34.07153314 -11.44261318 33.44144333 -9 32 C-8.67 32.66 -8.34 33.32 -8 34 C-5.73032265 27.56924749 -5.56806342 21.33983054 -5.375 14.5625 C-5.33632813 13.44939453 -5.29765625 12.33628906 -5.2578125 11.18945312 C-5.16409034 8.45979524 -5.07837706 5.73013437 -5 3 C-4.34 3.33 -3.68 3.66 -3 4 C-2.67 3.34 -2.34 2.68 -2 2 C-1.34 2 -0.68 2 0 2 C0 1.34 0 0.68 0 0 Z " fill="#7979A2" transform="translate(433,160)"/>
<path d="M0 0 C0.66 0 1.32 0 2 0 C1.9071875 1.3921875 1.9071875 1.3921875 1.8125 2.8125 C1.66863275 5.96237867 1.66863275 5.96237867 3.4375 7.625 C3.953125 8.07875 4.46875 8.5325 5 9 C5.6875 11.1875 5.6875 11.1875 6 13 C6 12.01 6 11.02 6 10 C6.66 10 7.32 10 8 10 C6.48362185 20.11409505 2.45623461 29.59146748 -1.125 39.125 C-1.47377197 40.062229 -1.82254395 40.99945801 -2.18188477 41.96508789 C-2.51631592 42.84543701 -2.85074707 43.72578613 -3.1953125 44.6328125 C-3.49453613 45.42574707 -3.79375977 46.21868164 -4.10205078 47.03564453 C-5 49 -5 49 -7 51 C-8.34262065 50.70630173 -9.67696283 50.3721042 -11 50 C-11.99 50.495 -11.99 50.495 -13 51 C-13.66 49.35 -14.32 47.7 -15 46 C-15.33 46.66 -15.66 47.32 -16 48 C-17.30986994 42.88380212 -16.61683813 40.22663408 -14.375 35.5 C-13.80751687 34.26470524 -13.24380921 33.02767014 -12.68359375 31.7890625 C-12.3985498 31.16161133 -12.11350586 30.53416016 -11.81982422 29.88769531 C-10.53816175 26.93658923 -9.49186799 23.91346623 -8.4375 20.875 C-5.96969841 13.79903815 -3.35576341 6.71152682 0 0 Z " fill="#7D749C" transform="translate(389,126)"/>
<path d="M0 0 C0.66 0.33 1.32 0.66 2 1 C2 1.66 2 2.32 2 3 C3.65 3 5.3 3 7 3 C10.55113943 14.21546913 1.53063717 30.01410582 -3 40 C-3.66 40.99 -4.32 41.98 -5 43 C-6.125 38.25 -6.125 38.25 -5 36 C-4.34 36 -3.68 36 -3 36 C-2.67 33.36 -2.34 30.72 -2 28 C-2.66 28 -3.32 28 -4 28 C-4.144375 27.236875 -4.28875 26.47375 -4.4375 25.6875 C-4.9632594 22.91827092 -4.9632594 22.91827092 -6 20 C-6.2236068 22.9254644 -6.2236068 22.9254644 -5 25 C-5.94700593 28.70910654 -6.76325278 31.759175 -10 34 C-11.32 34 -12.64 34 -14 34 C-15 32 -15 32 -14.25 29.70703125 C-13.63125 28.27423828 -13.63125 28.27423828 -13 26.8125 C-12.54238281 25.75160156 -12.08476562 24.69070312 -11.61328125 23.59765625 C-8.81742701 17.36283359 -5.92686058 11.17424191 -3 5 C-2.34 5 -1.68 5 -1 5 C-0.67 3.35 -0.34 1.7 0 0 Z " fill="#66388B" transform="translate(308,126)"/>
<path d="M0 0 C0.33 0 0.66 0 1 0 C1.16874707 1.91648462 1.33491643 3.83319633 1.5 5.75 C1.5928125 6.81734375 1.685625 7.8846875 1.78125 8.984375 C1.95052283 11.3179218 2 13.66032182 2 16 C2.33 16.66 2.66 17.32 3 18 C4.32 17.67 5.64 17.34 7 17 C7.43956806 23.81330497 6.58694057 29.87385316 5.125 36.5 C4.95129883 37.30163574 4.77759766 38.10327148 4.59863281 38.92919922 C3.25710641 44.74289359 3.25710641 44.74289359 1 47 C0.731875 46.401875 0.46375 45.80375 0.1875 45.1875 C-1.40149451 42.26040485 -3.01895619 40.4905219 -6 39 C-6 38.01 -6 37.02 -6 36 C-7.88267985 37.88267985 -7.40620537 40.57062042 -7.62109375 43.08984375 C-8 45 -8 45 -10 47 C-10.66 46.34 -11.32 45.68 -12 45 C-11.66226562 43.81664062 -11.32453125 42.63328125 -10.9765625 41.4140625 C-8.68477007 33.31702374 -6.47163038 25.29464397 -5 17 C-4.34 17 -3.68 17 -3 17 C-1.65155132 11.3443706 -0.63065155 5.7809725 0 0 Z " fill="#633488" transform="translate(332,149)"/>
<path d="M0 0 C0 0.66 0 1.32 0 2 C4.62 2 9.24 2 14 2 C15.33332095 4.6666419 14.67102033 6.16680303 14 9 C10.26562152 9.87867729 6.83225427 10.08912219 3 10 C3 10.99 3 11.98 3 13 C1.741875 13.391875 0.48375 13.78375 -0.8125 14.1875 C-3.84447282 15.32114769 -4.84517044 15.79872158 -6.875 18.4375 C-7.24625 19.283125 -7.6175 20.12875 -8 21 C-8.391875 21.763125 -8.78375 22.52625 -9.1875 23.3125 C-9.455625 23.869375 -9.72375 24.42625 -10 25 C-10 22.69 -10 20.38 -10 18 C-11.98 18.66 -13.96 19.32 -16 20 C-16.66 18.68 -17.32 17.36 -18 16 C-18.66 16 -19.32 16 -20 16 C-17.60694051 8.3857198 -11.58498344 4.7794607 -5 1 C-3 0 -3 0 0 0 Z " fill="#4F2D8A" transform="translate(251,99)"/>
<path d="M0 0 C0.99 0 1.98 0 3 0 C2.67 1.98 2.34 3.96 2 6 C2.825 6.350625 3.65 6.70125 4.5 7.0625 C7 9 7 9 7.5625 12.3125 C6.71199143 17.8880562 4.46561201 20.73424418 0.25 24.375 C-5.45737416 27.22868708 -10.04278898 26.45352187 -15.875 24.5625 C-17.99489142 23.79800954 -19.98437973 23.00781013 -22 22 C-22 21.34 -22 20.68 -22 20 C-22.66 20 -23.32 20 -24 20 C-24.33 18.68 -24.66 17.36 -25 16 C-20.345269 15.10485942 -18.14673554 14.92663223 -14 17 C-11.63777768 17.23979762 -11.63777768 17.23979762 -9.25 17.125 C-8.05117188 17.09792969 -8.05117188 17.09792969 -6.828125 17.0703125 C-6.22484375 17.04710937 -5.6215625 17.02390625 -5 17 C-5.83333333 14.83333333 -5.83333333 14.83333333 -8 14 C-7.38125 13.0925 -6.7625 12.185 -6.125 11.25 C-4.55610389 8.85051183 -3.19556179 6.59038388 -2 4 C-1.34 4 -0.68 4 0 4 C0 2.68 0 1.36 0 0 Z M0 8 C1 11 1 11 1 11 Z " fill="#3B1983" transform="translate(285,180)"/>
<path d="M0 0 C2.8992226 0.46761655 3.86675182 0.86675182 6 3 C6.99 3.33 7.98 3.66 9 4 C9.33 3.34 9.66 2.68 10 2 C10.33315612 7.09252922 9.18666588 11.18111314 7.375 15.875 C7.10647217 16.57955322 6.83794434 17.28410645 6.5612793 18.01000977 C4.50138504 23.19542626 2.17009123 28.15697475 -2 32 C-3.485 32.495 -3.485 32.495 -5 33 C-4.67 32.01 -4.34 31.02 -4 30 C-4.33 29.67 -4.66 29.34 -5 29 C-6 26 -6 26 -5 23 C-5.99 23 -6.98 23 -8 23 C-8.33 23.66 -8.66 24.32 -9 25 C-9.99800627 22.37334547 -10.07509969 21.21775482 -9.14453125 18.51953125 C-8.70496094 17.62621094 -8.26539063 16.73289063 -7.8125 15.8125 C-7.34972656 14.85214844 -6.88695312 13.89179688 -6.41015625 12.90234375 C-5.94480469 11.94457031 -5.47945313 10.98679688 -5 10 C-4.24295121 8.29477863 -3.49220754 6.58673326 -2.75 4.875 C-1.11949686 1.11949686 -1.11949686 1.11949686 0 0 Z " fill="#76458E" transform="translate(372,172)"/>
<path d="M0 0 C0.5775 0.639375 1.155 1.27875 1.75 1.9375 C3.98062401 3.98223868 5.07436391 4.58205199 8 5 C7.67 5.66 7.34 6.32 7 7 C6.81535895 9.48239633 6.67395734 11.95180187 6.5625 14.4375 C6.21532604 21.0840442 5.4214538 27.48615346 4 34 C4.66 34 5.32 34 6 34 C7.31626692 37.61973402 8 40.09567131 8 44 C8.99 44.33 9.98 44.66 11 45 C11 47.97 11 50.94 11 54 C8.3508509 50.83020888 7.01637608 47.75030921 5.625 43.875 C4.06380544 39.66307632 2.40211876 35.6633233 0.3125 31.6875 C-4.1287159 23.00059343 -5.59320172 13.87493136 -3 4.3125 C-2.505 3.1678125 -2.505 3.1678125 -2 2 C-1.34 2 -0.68 2 0 2 C0 1.34 0 0.68 0 0 Z " fill="#3D1D83" transform="translate(233,113)"/>
<path d="M0 0 C8.0402753 7.32558416 9.48585193 18.25131663 10.8125 28.5625 C10.85509124 30.56204645 10.87148055 32.56336987 10.8125 34.5625 C9.8225 33.9025 8.8325 33.2425 7.8125 32.5625 C7.40406077 29.85046348 7.67913133 27.3187858 7.8125 24.5625 C7.4825 24.5625 7.1525 24.5625 6.8125 24.5625 C6.668125 23.428125 6.52375 22.29375 6.375 21.125 C6.20078522 17.75472799 6.20078522 17.75472799 4.8125 16.5625 C4.1525 17.2225 3.4925 17.8825 2.8125 18.5625 C1.8225 18.5625 0.8325 18.5625 -0.1875 18.5625 C-0.1875 22.1925 -0.1875 25.8225 -0.1875 29.5625 C-1.1775 29.5625 -2.1675 29.5625 -3.1875 29.5625 C-3.8475 24.2825 -4.5075 19.0025 -5.1875 13.5625 C-4.8575 13.5625 -4.5275 13.5625 -4.1875 13.5625 C-3.89875 12.675625 -3.61 11.78875 -3.3125 10.875 C-2.35601252 8.05867576 -1.31951054 5.31166844 -0.1875 2.5625 C-2.4975 2.5625 -4.8075 2.5625 -7.1875 2.5625 C-7.1875 3.2225 -7.1875 3.8825 -7.1875 4.5625 C-11.8125 6.6875 -11.8125 6.6875 -15.1875 5.5625 C-15.1875 4.5725 -15.1875 3.5825 -15.1875 2.5625 C-16.1775 2.2325 -17.1675 1.9025 -18.1875 1.5625 C-13.21317364 -4.15797531 -6.37783277 -2.87627752 0 0 Z " fill="#764F90" transform="translate(337.1875,100.4375)"/>
<path d="M0 0 C7.70390156 2.59394373 12.0238124 6.40043734 16.375 13.125 C17.14773681 15.44321042 16.81076663 16.72985345 16 19 C15.01 19 14.02 19 13 19 C12.67 18.34 12.34 17.68 12 17 C11.34 17 10.68 17 10 17 C9.34 16.34 8.68 15.68 8 15 C7.01 15.495 7.01 15.495 6 16 C6.16749756 16.71567139 6.33499512 17.43134277 6.50756836 18.16870117 C7.00068485 21.00393764 7.0298462 23.43292216 6.87890625 26.30078125 C6.83056641 27.27724609 6.78222656 28.25371094 6.73242188 29.25976562 C6.67634766 30.26716797 6.62027344 31.27457031 6.5625 32.3125 C6.51029297 33.33923828 6.45808594 34.36597656 6.40429688 35.42382812 C6.27507334 37.94956087 6.14012709 40.47485261 6 43 C5.67 43 5.34 43 5 43 C4.97494385 42.3294458 4.9498877 41.6588916 4.92407227 40.96801758 C4.80769199 37.9160041 4.68515652 34.86426742 4.5625 31.8125 C4.52318359 30.75740234 4.48386719 29.70230469 4.44335938 28.61523438 C4.40146484 27.59365234 4.35957031 26.57207031 4.31640625 25.51953125 C4.27974854 24.58214111 4.24309082 23.64475098 4.20532227 22.67895508 C4.00175565 20.02290695 3.70022309 17.57160088 3 15 C1.03241727 13.63979849 1.03241727 13.63979849 -1 13 C-0.01 13 0.98 13 2 13 C1.690625 12.2575 1.38125 11.515 1.0625 10.75 C0.18839253 8.4876042 -0.44256673 6.35025921 -1 4 C-2.43640171 3.80426392 -3.87419504 3.61872184 -5.3125 3.4375 C-6.11300781 3.33308594 -6.91351563 3.22867188 -7.73828125 3.12109375 C-10.16817116 2.85244822 -10.16817116 2.85244822 -13 4 C-13 3.34 -13 2.68 -13 2 C-8.68702772 -0.87531485 -5.06121542 -0.69341511 0 0 Z " fill="#91BDBB" transform="translate(420,98)"/>
<path d="M0 0 C0.66 0 1.32 0 2 0 C2 0.66 2 1.32 2 2 C2.66 2 3.32 2 4 2 C4 2.66 4 3.32 4 4 C4.99 4 5.98 4 7 4 C7 5.32 7 6.64 7 8 C7.99 7.67 8.98 7.34 10 7 C10.433125 7.474375 10.86625 7.94875 11.3125 8.4375 C13.02309613 10.23686957 13.02309613 10.23686957 16 11 C15.34 12.32 14.68 13.64 14 15 C13.34 15 12.68 15 12 15 C11.34 16.98 10.68 18.96 10 21 C9.4465236 18.92446352 9 17.15634036 9 15 C6.00847418 15.77479736 6.00847418 15.77479736 3 17 C2.67 17.99 2.34 18.98 2 20 C1.67 20 1.34 20 1 20 C0.98018066 20.59949463 0.96036133 21.19898926 0.93994141 21.81665039 C0.84394997 24.56566471 0.73457495 27.31399493 0.625 30.0625 C0.5940625 31.00544922 0.563125 31.94839844 0.53125 32.91992188 C0.30832641 38.25151111 -0.10884827 42.98640709 -2 48 C-2.99 48.495 -2.99 48.495 -4 49 C-3.9306956 44.85513767 -3.8425289 40.71121503 -3.73754883 36.56713867 C-3.70448006 35.1600222 -3.67639296 33.75277884 -3.65356445 32.34545898 C-3.61968201 30.31179176 -3.56735782 28.27926865 -3.51171875 26.24609375 C-3.48553467 25.02591553 -3.45935059 23.8057373 -3.43237305 22.54858398 C-2.74802578 16.93199028 -0.66763576 12.36623304 3 8 C2.690625 7.4225 2.38125 6.845 2.0625 6.25 C1.07416636 4.15705816 0.4831387 2.25464725 0 0 Z " fill="#7F95A5" transform="translate(428,146)"/>
<path d="M0 0 C0.350625 0.495 0.70125 0.99 1.0625 1.5 C0.4025 2.82 -0.2575 4.14 -0.9375 5.5 C1.0425 4.51 3.0225 3.52 5.0625 2.5 C5.0625 3.16 5.0625 3.82 5.0625 4.5 C5.7225 4.83 6.3825 5.16 7.0625 5.5 C-1.28046628 9.9682685 -7.51099661 11.66252592 -16.9375 11.5 C-18.1273306 9.1203388 -18.07099966 7.58514265 -18.0625 4.9375 C-18.06636719 3.72900391 -18.06636719 3.72900391 -18.0703125 2.49609375 C-17.9375 0.5 -17.9375 0.5 -16.9375 -0.5 C-3.36598594 -2.6059246 -3.36598594 -2.6059246 0 0 Z " fill="#795790" transform="translate(423.9375,196.5)"/>
<path d="M0 0 C0.99 0.33 1.98 0.66 3 1 C4.32 1 5.64 1 7 1 C9.34476551 1.6252708 11.68060793 2.2863409 14 3 C14 4.32 14 5.64 14 7 C14.66 7.33 15.32 7.66 16 8 C16 9.32 16 10.64 16 12 C15.26394531 12.03738281 14.52789062 12.07476562 13.76953125 12.11328125 C6.39587342 12.52984473 6.39587342 12.52984473 0 16 C0.33 14.68 0.66 13.36 1 12 C-1.64 12 -4.28 12 -7 12 C-6.67 11.236875 -6.34 10.47375 -6 9.6875 C-4.82563314 7.00930865 -4.82563314 7.00930865 -5 4 C-3.42698959 2.1409877 -2.18380083 1.09190042 0 0 Z " fill="#83AEB6" transform="translate(406,99)"/>
<path d="M0 0 C10.59469524 -0.72511222 18.48036723 1.72237585 27 8 C26.01 8.495 26.01 8.495 25 9 C22.875 8.0625 22.875 8.0625 21 7 C21 8.32 21 9.64 21 11 C23.475 11.495 23.475 11.495 26 12 C23 13 23 13 21 13 C20.67 15.31 20.34 17.62 20 20 C19.0925 19.236875 18.185 18.47375 17.25 17.6875 C12.36956661 14.14541226 6.82051721 13.17557244 1 12 C1.33 11.34 1.66 10.68 2 10 C7.75 9.875 7.75 9.875 10 11 C10.33 10.34 10.66 9.68 11 9 C11.350625 8.319375 11.70125 7.63875 12.0625 6.9375 C13.07259349 5.20870628 13.07259349 5.20870628 13 4 C6.07 3.505 6.07 3.505 -1 3 C-0.67 2.01 -0.34 1.02 0 0 Z " fill="#653F91" transform="translate(252,98)"/>
<path d="M0 0 C4.64520548 3.48390411 4.66495738 4.40391372 5.625 9.875 C6.39873164 14.16238357 7.22567613 18.01156258 9 22 C8.2575 22.144375 7.515 22.28875 6.75 22.4375 C4.47972261 22.90187492 2.24240521 23.41863569 0 24 C-0.33 23.01 -0.66 22.02 -1 21 C-1.66 21 -2.32 21 -3 21 C-5.05362055 15.91059256 -6.43179252 11.45479185 -7 6 C-6.4225 6.66 -5.845 7.32 -5.25 8 C-3.00346023 10.44290923 -3.00346023 10.44290923 1 10 C0.67 6.7 0.34 3.4 0 0 Z " fill="#34127E" transform="translate(250,155)"/>
<path d="M0 0 C2 3 2 3 2 7 C3.32 6.67 4.64 6.34 6 6 C6.66 8.64 7.32 11.28 8 14 C10.89932357 11.60490662 11.50168276 9.68754757 12 6 C14.35020498 8.35020498 14.31914802 8.91909622 14.375 12.125 C14.2916181 17.26966347 12.56194473 20.5966575 10 25 C6.39289994 23.79763331 5.72033793 22.35478942 3.984375 19.08984375 C0.9418763 12.63057071 -0.38955093 7.14176703 0 0 Z " fill="#613885" transform="translate(281,133)"/>
<path d="M0 0 C0 0.66 0 1.32 0 2 C0.99 2.33 1.98 2.66 3 3 C2.67 3.66 2.34 4.32 2 5 C2.99 5.33 3.98 5.66 5 6 C5 6.66 5 7.32 5 8 C-1.98743408 8.38113277 -7.72117485 7.13941257 -14 4 C-14 3.34 -14 2.68 -14 2 C-14.66 2 -15.32 2 -16 2 C-16.33 0.68 -16.66 -0.64 -17 -2 C-11.3061373 -3.89795423 -5.55911769 -1.70177072 0 0 Z " fill="#361483" transform="translate(277,198)"/>
<path d="M0 0 C2.70294439 2.26293019 4.25178635 4.04075772 5.6875 7.25 C5.3575 7.91 5.0275 8.57 4.6875 9.25 C3.3675 9.25 2.0475 9.25 0.6875 9.25 C-1.3125 6.25 -1.3125 6.25 -0.9375 4.0625 C-0.628125 3.1653125 -0.628125 3.1653125 -0.3125 2.25 C-2.6225 2.25 -4.9325 2.25 -7.3125 2.25 C-7.3125 2.91 -7.3125 3.57 -7.3125 4.25 C-11.9375 6.375 -11.9375 6.375 -15.3125 5.25 C-15.3125 4.26 -15.3125 3.27 -15.3125 2.25 C-16.3025 1.92 -17.2925 1.59 -18.3125 1.25 C-13.29776869 -4.51694101 -6.25313829 -3.30354476 0 0 Z " fill="#846398" transform="translate(337.3125,100.75)"/>
<path d="M0 0 C0.33 0 0.66 0 1 0 C1.28571429 7.42857143 1.28571429 7.42857143 -1 11 C0.32 11.66 1.64 12.32 3 13 C2.67 13.66 2.34 14.32 2 15 C2.66 15 3.32 15 4 15 C4 14.34 4 13.68 4 13 C4.99 13 5.98 13 7 13 C7.89130413 10.3260876 8.47731534 7.76276177 9 5 C9.99 5 10.98 5 12 5 C10.26711614 11.56671779 7.81128649 17.08847838 3 22 C2.01 22.33 1.02 22.66 0 23 C0.33 22.01 0.66 21.02 1 20 C0.67 19.67 0.34 19.34 0 19 C-1 16 -1 16 0 13 C-0.99 13 -1.98 13 -3 13 C-3.33 13.66 -3.66 14.32 -4 15 C-5.11346788 12.19966161 -5.03510273 11.09856297 -4.00390625 8.203125 C-3.52824219 7.22859375 -3.05257813 6.2540625 -2.5625 5.25 C-2.08941406 4.26515625 -1.61632812 3.2803125 -1.12890625 2.265625 C-0.75636719 1.51796875 -0.38382812 0.7703125 0 0 Z " fill="#865991" transform="translate(367,182)"/>
<path d="M0 0 C1.5 1.25 1.5 1.25 3 3 C3 4.32 3 5.64 3 7 C3.66 7.33 4.32 7.66 5 8 C5.33 7.01 5.66 6.02 6 5 C8.95664519 3.5216774 11.74229737 3.93967217 15 4 C11 6 11 6 8.9375 6.8125 C5.28568774 9.05070751 3.80954582 13.24171252 2 17 C2 14.69 2 12.38 2 10 C0.02 10.66 -1.96 11.32 -4 12 C-4.66 10.68 -5.32 9.36 -6 8 C-6.66 8 -7.32 8 -8 8 C-6.9802693 4.22699642 -6.34127338 3.19793856 -2.875 1.1875 C-1.92625 0.795625 -0.9775 0.40375 0 0 Z " fill="#452785" transform="translate(239,107)"/>
<path d="M0 0 C2.86724686 0.57344937 3.8614515 0.8614515 6 3 C6.99 3.33 7.98 3.66 9 4 C9.33 3.34 9.66 2.68 10 2 C10.21278058 6.46839215 9.59138085 9.82262526 8 14 C7.34 14 6.68 14 6 14 C5.54625 13.34 5.0925 12.68 4.625 12 C4.08875 11.34 3.5525 10.68 3 10 C1.68 10 0.36 10 -1 10 C-1.33 9.67 -1.66 9.34 -2 9 C-2.99 9.495 -2.99 9.495 -4 10 C-3.43454163 6.04179141 -2.19097652 3.3340947 0 0 Z " fill="#795691" transform="translate(372,172)"/>
<path d="M0 0 C1.72236457 3.26384154 3.0233642 6.60660827 4.3125 10.0625 C6.35467316 15.4635908 8.64361741 20.66943321 11.1796875 25.85546875 C11.45039063 26.56316406 11.72109375 27.27085937 12 28 C11.67 28.66 11.34 29.32 11 30 C9.35 29.67 7.7 29.34 6 29 C5.87625 28.360625 5.7525 27.72125 5.625 27.0625 C5.41875 26.381875 5.2125 25.70125 5 25 C4.34 24.67 3.68 24.34 3 24 C2.65625 22.14453125 2.65625 22.14453125 2.5 19.8125 C2.24877169 16.91195497 1.91923765 14.77196512 0.9375 12 C-0.32482973 7.96054486 -0.16788229 4.19705737 0 0 Z M5 30 C5.99 30.33 6.98 30.66 8 31 C7.01 31.33 6.02 31.66 5 32 C5 31.34 5 30.68 5 30 Z " fill="#331377" transform="translate(241,127)"/>
<path d="M0 0 C0.33 0 0.66 0 1 0 C1.2763585 2.24691477 1.52018861 4.49784842 1.75 6.75 C1.88921875 8.00296875 2.0284375 9.2559375 2.171875 10.546875 C2 14 2 14 0.265625 16.453125 C-2 18 -2 18 -6 18 C-6.33 15.36 -6.66 12.72 -7 10 C-6.34 10 -5.68 10 -5 10 C-5.33 8.35 -5.66 6.7 -6 5 C-5.01 5 -4.02 5 -3 5 C-2.67 4.34 -2.34 3.68 -2 3 C-1.34 3 -0.68 3 0 3 C0 2.01 0 1.02 0 0 Z " fill="#753F8E" transform="translate(352,181)"/>
<path d="M0 0 C0.99 0.33 1.98 0.66 3 1 C2.01 2.98 1.02 4.96 0 7 C2.64 7 5.28 7 8 7 C7.34 9.31 6.68 11.62 6 14 C5.67 13.34 5.34 12.68 5 12 C4.34 12 3.68 12 3 12 C3 12.99 3 13.98 3 15 C2.01 15.33 1.02 15.66 0 16 C-0.33 14.35 -0.66 12.7 -1 11 C-1.99 11.66 -2.98 12.32 -4 13 C-4 12.34 -4 11.68 -4 11 C-4.66 11 -5.32 11 -6 11 C-5.55530671 5.96014269 -3.28656638 3.62365012 0 0 Z " fill="#80A0AD" transform="translate(400,103)"/>
<path d="M0 0 C0.33 0.99 0.66 1.98 1 3 C0.67 3.66 0.34 4.32 0 5 C-0.66 5 -1.32 5 -2 5 C-2 5.99 -2 6.98 -2 8 C-4.10192697 8.24887295 -6.20673964 8.4734719 -8.3125 8.6875 C-9.48425781 8.81511719 -10.65601563 8.94273437 -11.86328125 9.07421875 C-15 9 -15 9 -16.91796875 7.51953125 C-17.27503906 7.01808594 -17.63210938 6.51664063 -18 6 C-15.03 6.495 -15.03 6.495 -12 7 C-11.773125 6.05125 -11.54625 5.1025 -11.3125 4.125 C-10 1 -10 1 -7.6875 -0.4375 C-4.75007107 -1.05231071 -2.86463946 -0.81846842 0 0 Z " fill="#4C2988" transform="translate(327,197)"/>
<path d="M0 0 C0.99 0.33 1.98 0.66 3 1 C2.88933827 4.854717 2.75889604 8.70852562 2.625 12.5625 C2.5940625 13.64853516 2.563125 14.73457031 2.53125 15.85351562 C2.32416513 21.53109251 2.07553812 26.67676733 0 32 C-0.99 32.495 -0.99 32.495 -2 33 C-1.88166798 28.78228161 -1.75741398 24.56479177 -1.62768555 20.34741211 C-1.58439207 18.91288997 -1.54271301 17.47831816 -1.50268555 16.04370117 C-1.44484733 13.9808048 -1.38119247 11.91815717 -1.31640625 9.85546875 C-1.27974854 8.61434326 -1.24309082 7.37321777 -1.20532227 6.09448242 C-1 3 -1 3 0 0 Z " fill="#928EA2" transform="translate(426,162)"/>
<path d="M0 0 C0.99 0.495 0.99 0.495 2 1 C3.99960012 1.039992 6.00047242 1.04346799 8 1 C7.360625 1.226875 6.72125 1.45375 6.0625 1.6875 C3.72806339 2.85250896 3.72806339 2.85250896 3.25 5.625 C3.1675 6.40875 3.085 7.1925 3 8 C9.92444842 7.71621113 15.02458563 6.51494963 21 3 C21.66 2.67 22.32 2.34 23 2 C23 2.66 23 3.32 23 4 C23.66 4.33 24.32 4.66 25 5 C16.65703372 9.4682685 10.42650339 11.16252592 1 11 C-0.20272819 8.59454362 -0.10071472 7.05003047 -0.0625 4.375 C-0.05347656 3.55773437 -0.04445313 2.74046875 -0.03515625 1.8984375 C-0.02355469 1.27195313 -0.01195312 0.64546875 0 0 Z " fill="#876593" transform="translate(406,197)"/>
<path d="M0 0 C0.66 0.66 1.32 1.32 2 2 C1.59929125 4.80496122 0.87507856 7.45507095 0.125 10.1875 C-0.03220347 14.98220575 1.4814065 17.64253012 3.7734375 21.765625 C5 24 5 24 6 27 C6.66 27 7.32 27 8 27 C8 27.66 8 28.32 8 29 C5.7421875 28.94921875 5.7421875 28.94921875 3 28 C1.41782331 25.56056027 0.2718661 23.44281246 -0.875 20.8125 C-1.1946875 20.15185547 -1.514375 19.49121094 -1.84375 18.81054688 C-4.18378538 13.65738201 -4.16980166 10.28514249 -2.24609375 4.8828125 C-1.49739583 3.25520833 -0.74869792 1.62760417 0 0 Z " fill="#72548E" transform="translate(303,174)"/>
<path d="M0 0 C1.32 0 2.64 0 4 0 C5 3 5 3 5 6 C5.33 5.01 5.66 4.02 6 3 C6.99 3 7.98 3 9 3 C7.09346774 10.62612904 4.37169072 18.44246392 0 25 C-1.125 20.25 -1.125 20.25 0 18 C0.66 18 1.32 18 2 18 C2.33 15.36 2.66 12.72 3 10 C2.34 10 1.68 10 1 10 C0.67 6.7 0.34 3.4 0 0 Z " fill="#6C418F" transform="translate(303,144)"/>
<path d="M0 0 C0.99 0 1.98 0 3 0 C3 2.64 3 5.28 3 8 C3.66 8 4.32 8 5 8 C6.31626692 11.61973402 7 14.09567131 7 18 C7.99 18.33 8.98 18.66 10 19 C10 21.97 10 24.94 10 28 C7.29144202 24.77177683 5.93503987 21.57135964 4.5 17.625 C3.25251243 14.21040261 1.99792784 10.99600059 0.32421875 7.765625 C-1.19084981 4.60141101 -1.06063856 3.27833736 0 0 Z " fill="#4D2F80" transform="translate(234,139)"/>
<path d="M0 0 C1.22589844 0.15275391 1.22589844 0.15275391 2.4765625 0.30859375 C3.41628906 0.43427734 3.41628906 0.43427734 4.375 0.5625 C4.49875 1.366875 4.6225 2.17125 4.75 3 C4.95625 3.845625 5.1625 4.69125 5.375 5.5625 C6.035 5.8925 6.695 6.2225 7.375 6.5625 C7.375 7.8825 7.375 9.2025 7.375 10.5625 C4.405 10.2325 1.435 9.9025 -1.625 9.5625 C-0.965 8.9025 -0.305 8.2425 0.375 7.5625 C-0.26479849 5.53008273 -0.26479849 5.53008273 -1.625 3.5625 C-4.18019921 2.75078772 -4.18019921 2.75078772 -6.625 2.5625 C-6.625 1.9025 -6.625 1.2425 -6.625 0.5625 C-4.10446405 -0.69776798 -2.7707902 -0.35624445 0 0 Z " fill="#7CB2B5" transform="translate(414.625,100.4375)"/>
<path d="M0 0 C0.33 0 0.66 0 1 0 C1.33 3.63 1.66 7.26 2 11 C1.01 11.33 0.02 11.66 -1 12 C-2.42857143 3.42857143 -2.42857143 3.42857143 0 0 Z M-4 12 C-3.01 12 -2.02 12 -1 12 C-0.3125 14.25 -0.3125 14.25 0 17 C-1.4375 19.3125 -1.4375 19.3125 -3 21 C-2.34 21 -1.68 21 -1 21 C-1.33 21.66 -1.66 22.32 -2 23 C-6.875 19.375 -6.875 19.375 -8 16 C-6.68 15.34 -5.36 14.68 -4 14 C-4 13.34 -4 12.68 -4 12 Z " fill="#77488B" transform="translate(355,183)"/>
<path d="M0 0 C2.08737691 3.13106537 3.24544566 6.04380259 4.5625 9.5625 C6.56661936 15.70528394 6.56661936 15.70528394 11 20 C10.236875 20.28875 9.47375 20.5775 8.6875 20.875 C5.84970692 21.96269013 5.84970692 21.96269013 3 24 C2.67 22.68 2.34 21.36 2 20 C2.66 20 3.32 20 4 20 C2.16218184 13.49165851 2.16218184 13.49165851 -0.25 7.1875 C-1.18717211 4.45408136 -0.78308668 2.74080337 0 0 Z " fill="#6D508E" transform="translate(309,176)"/>
<path d="M0 0 C0.66 0 1.32 0 2 0 C1.95875 0.94875 1.9175 1.8975 1.875 2.875 C1.65026182 6.10244856 1.65026182 6.10244856 4 8 C3.4375 9.875 3.4375 9.875 2 12 C-1.625 13.25 -1.625 13.25 -5 14 C-4.54857225 12.22739369 -4.08859477 10.4569632 -3.625 8.6875 C-3.36976563 7.70136719 -3.11453125 6.71523437 -2.8515625 5.69921875 C-2 3 -2 3 0 0 Z " fill="#76819F" transform="translate(389,126)"/>
<path d="M0 0 C1.60011528 4.03067014 0.34294927 7.10156758 -0.875 11.125 C-1.42800781 12.98511719 -1.42800781 12.98511719 -1.9921875 14.8828125 C-3 18 -3 18 -4 20 C-4.99 20 -5.98 20 -7 20 C-7 21.32 -7 22.64 -7 24 C-7.66 24 -8.32 24 -9 24 C-6.41874331 15.82602049 -3.22988119 7.93359166 0 0 Z " fill="#624487" transform="translate(292,160)"/>
<path d="M0 0 C2.8301913 3.38263104 4.5032781 7.09118459 6.1875 11.125 C6.46013672 11.75792969 6.73277344 12.39085937 7.01367188 13.04296875 C9 17.7324953 9 17.7324953 9 20 C7.13671875 19.78125 7.13671875 19.78125 5 19 C1.39419369 13.2307099 0.42997732 6.66464853 0 0 Z " fill="#442C76" transform="translate(254,160)"/>
<path d="M0 0 C0.33 0 0.66 0 1 0 C1.309375 1.093125 1.61875 2.18625 1.9375 3.3125 C2.58337897 5.55407994 3.2623117 7.7869351 4 10 C3.01 10.33 2.02 10.66 1 11 C0.67 10.67 0.34 10.34 0 10 C-0.185625 11.918125 -0.185625 11.918125 -0.375 13.875 C-0.75 17.75 -0.75 17.75 -3 20 C-3.66 19.34 -4.32 18.68 -5 18 C-3.35 12.06 -1.7 6.12 0 0 Z " fill="#775297" transform="translate(325,176)"/>
<path d="M0 0 C0.33 0 0.66 0 1 0 C1.11701204 3.68722927 1.18752045 7.37397542 1.25 11.0625 C1.28351563 12.10083984 1.31703125 13.13917969 1.3515625 14.20898438 C1.43425551 20.72105857 0.9446172 24.73320556 -3 30 C-3.66 30.33 -4.32 30.66 -5 31 C-4.125 23.25 -4.125 23.25 -3 21 C-2.34 21 -1.68 21 -1 21 C-0.67 14.07 -0.34 7.14 0 0 Z " fill="#ABA1B5" transform="translate(437,168)"/>
<path d="M0 0 C1.79377289 3.40399692 3.18330428 6.90997412 4.5625 10.5 C4.99691406 11.6240625 5.43132812 12.748125 5.87890625 13.90625 C6.73804237 16.27710648 7.46390775 18.54240858 8 21 C7.01 21 6.02 21 5 21 C4.3490741 19.75264433 3.70448331 18.50198168 3.0625 17.25 C2.70285156 16.55390625 2.34320313 15.8578125 1.97265625 15.140625 C0.29114548 11.43995069 -0.12205095 8.29946487 -0.0625 4.25 C-0.05347656 3.45078125 -0.04445312 2.6515625 -0.03515625 1.828125 C-0.02355469 1.22484375 -0.01195312 0.6215625 0 0 Z " fill="#5C4482" transform="translate(241,127)"/>
<path d="M0 0 C1.9370237 3.23939116 2.19417139 5.4602521 1.9765625 9.203125 C1.925 10.1828125 1.8734375 11.1625 1.8203125 12.171875 C1.75585938 13.18765625 1.69140625 14.2034375 1.625 15.25 C1.56828125 16.28125 1.5115625 17.3125 1.453125 18.375 C1.311881 20.91739205 1.16049254 23.45876238 1 26 C0.34 25.67 -0.32 25.34 -1 25 C-1.0289337 21.20834926 -1.04677601 17.41672673 -1.0625 13.625 C-1.07087891 12.54476562 -1.07925781 11.46453125 -1.08789062 10.3515625 C-1.09111328 9.3203125 -1.09433594 8.2890625 -1.09765625 7.2265625 C-1.10289307 6.27346191 -1.10812988 5.32036133 -1.11352539 4.33837891 C-1 2 -1 2 0 0 Z " fill="#73738F" transform="translate(436,164)"/>
<path d="M0 0 C0.33 0 0.66 0 1 0 C1.5064814 2.70726366 2.005351 5.41557124 2.5 8.125 C2.64308594 8.88554687 2.78617187 9.64609375 2.93359375 10.4296875 C3.70312456 14.68042914 4.16644376 18.65859197 4 23 C3.01 23.33 2.02 23.66 1 24 C-0.29235715 19.08497242 -0.11135517 14.22709898 -0.0625 9.1875 C-0.05798828 8.30384766 -0.05347656 7.42019531 -0.04882812 6.50976562 C-0.03709866 4.33981441 -0.01916495 2.16989828 0 0 Z " fill="#80518A" transform="translate(350,154)"/>
<path d="M0 0 C1.75763672 0.45246094 1.75763672 0.45246094 3.55078125 0.9140625 C4.73027344 1.21054688 5.90976563 1.50703125 7.125 1.8125 C8.02863281 2.05226563 8.93226563 2.29203125 9.86328125 2.5390625 C9.86328125 2.8690625 9.86328125 3.1990625 9.86328125 3.5390625 C8.79787109 3.72082031 8.79787109 3.72082031 7.7109375 3.90625 C6.79183594 4.07382813 5.87273437 4.24140625 4.92578125 4.4140625 C4.00925781 4.57648438 3.09273437 4.73890625 2.1484375 4.90625 C1.39433594 5.11507812 0.64023438 5.32390625 -0.13671875 5.5390625 C-0.46671875 6.1990625 -0.79671875 6.8590625 -1.13671875 7.5390625 C-2.45671875 7.2090625 -3.77671875 6.8790625 -5.13671875 6.5390625 C-4.47671875 6.5390625 -3.81671875 6.5390625 -3.13671875 6.5390625 C-3.13671875 5.2190625 -3.13671875 3.8990625 -3.13671875 2.5390625 C-4.12671875 2.2090625 -5.11671875 1.8790625 -6.13671875 1.5390625 C-3.13671875 -0.4609375 -3.13671875 -0.4609375 0 0 Z " fill="#3F1D7F" transform="translate(245.13671875,107.4609375)"/>
<path d="M0 0 C1.32 0 2.64 0 4 0 C4 0.66 4 1.32 4 2 C12.415 3.98 12.415 3.98 21 6 C16.50238126 8.24880937 13.70744057 8.34013623 9 7 C1.69610092 3.39220183 1.69610092 3.39220183 0 0 Z " fill="#5A4284" transform="translate(259,200)"/>
<path d="M0 0 C5 6.36363636 5 6.36363636 5 11 C2.36 10.67 -0.28 10.34 -3 10 C-3 9.01 -3 8.02 -3 7 C-2.34 7 -1.68 7 -1 7 C-1.33 5.02 -1.66 3.04 -2 1 C-1.34 0.67 -0.68 0.34 0 0 Z " fill="#6E488E" transform="translate(284,115)"/>
<path d="M0 0 C1.74991334 -0.02715383 3.49994945 -0.04646551 5.25 -0.0625 C6.71179688 -0.07990234 6.71179688 -0.07990234 8.203125 -0.09765625 C10.65758678 -0.01195577 12.66168914 0.29293934 15 1 C15 1.99 15 2.98 15 4 C9.72 3.67 4.44 3.34 -1 3 C-0.67 2.01 -0.34 1.02 0 0 Z " fill="#785D9A" transform="translate(252,98)"/>
<path d="M0 0 C3.465 1.485 3.465 1.485 7 3 C7 6.3 7 9.6 7 13 C5.68 13.33 4.36 13.66 3 14 C3 13.01 3 12.02 3 11 C3.99 11 4.98 11 6 11 C6 10.34 6 9.68 6 9 C5.01 9 4.02 9 3 9 C3 8.01 3 7.02 3 6 C3.66 6 4.32 6 5 6 C5 5.34 5 4.68 5 4 C3.35 3.67 1.7 3.34 0 3 C0 2.01 0 1.02 0 0 Z " fill="#8DA1AB" transform="translate(441,145)"/>
<path d="M0 0 C1.93816735 0.1141866 3.87555099 0.24173423 5.8125 0.375 C6.89144531 0.44460937 7.97039062 0.51421875 9.08203125 0.5859375 C12 1 12 1 15 3 C15 3.66 15 4.32 15 5 C9.58201328 4.30834212 4.3177215 3.24200752 -1 2 C-0.67 1.34 -0.34 0.68 0 0 Z " fill="#5E3A7E" transform="translate(254,108)"/>
<path d="M0 0 C0.99 0.33 1.98 0.66 3 1 C3 1.66 3 2.32 3 3 C-1.21550316 6.39296596 -4.58395662 7.7994058 -10 8 C-12.4375 7.0625 -12.4375 7.0625 -14 6 C-13 5 -13 5 -10.49609375 4.90234375 C-8.98208984 4.91974609 -8.98208984 4.91974609 -7.4375 4.9375 C-6.42558594 4.94652344 -5.41367187 4.95554688 -4.37109375 4.96484375 C-3.19740234 4.98224609 -3.19740234 4.98224609 -2 5 C-2 4.01 -2 3.02 -2 2 C-1.34 2 -0.68 2 0 2 C0 1.34 0 0.68 0 0 Z " fill="#694688" transform="translate(327,200)"/>
<path d="M0 0 C-0.35281837 5.46868476 -0.35281837 5.46868476 -1 8 C-3 9.1875 -3 9.1875 -5 10 C-5.81171228 12.55519921 -5.81171228 12.55519921 -6 15 C-6.66 15 -7.32 15 -8 15 C-4.4028777 3.99280576 -4.4028777 3.99280576 -3 1 C-1 0 -1 0 0 0 Z " fill="#7F5692" transform="translate(313,116)"/>
<path d="M0 0 C0.99 0.33 1.98 0.66 3 1 C3.22174933 2.45635371 3.42698698 3.91522956 3.625 5.375 C3.74101562 6.18710938 3.85703125 6.99921875 3.9765625 7.8359375 C3.98429687 8.55007812 3.99203125 9.26421875 4 10 C3.34 10.66 2.68 11.32 2 12 C1.34 11.34 0.68 10.68 0 10 C0 9.34 0 8.68 0 8 C-0.185625 6.824375 -0.37125 5.64875 -0.5625 4.4375 C-0.706875 3.303125 -0.85125 2.16875 -1 1 C-0.67 0.67 -0.34 0.34 0 0 Z " fill="#461F7A" transform="translate(305,171)"/>
<path d="M0 0 C0.66 0.33 1.32 0.66 2 1 C1.67 1.66 1.34 2.32 1 3 C2.32 3.33 3.64 3.66 5 4 C5 4.66 5 5.32 5 6 C-1.625 7.25 -1.625 7.25 -5 5 C-5 4.01 -5 3.02 -5 2 C-2.625 0.9375 -2.625 0.9375 0 0 Z " fill="#7D498C" transform="translate(360,201)"/>
<path d="M0 0 C0.33 1.32 0.66 2.64 1 4 C0.34 4 -0.32 4 -1 4 C-1.33 8.95 -1.66 13.9 -2 19 C-2.66 19 -3.32 19 -4 19 C-4.3690205 7.47835991 -4.3690205 7.47835991 -2 2 C-1.34 2 -0.68 2 0 2 C0 1.34 0 0.68 0 0 Z " fill="#3F266E" transform="translate(233,113)"/>
<path d="M0 0 C1.84494322 3.24027843 2.53659594 6.20447945 3.125 9.875 C3.29257812 10.88304688 3.46015625 11.89109375 3.6328125 12.9296875 C3.99827995 15.98561748 4.06424163 18.92557891 4 22 C3.01 21.34 2.02 20.68 1 20 C0.59156077 17.28796348 0.86663133 14.7562858 1 12 C0.67 12 0.34 12 0 12 C-0.19573608 10.56359829 -0.38127816 9.12580496 -0.5625 7.6875 C-0.66691406 6.88699219 -0.77132813 6.08648437 -0.87890625 5.26171875 C-1 3 -1 3 0 0 Z " fill="#92709C" transform="translate(344,113)"/>
<path d="M0 0 C0.99 0 1.98 0 3 0 C3.66 5.28 4.32 10.56 5 16 C4.01 16 3.02 16 2 16 C1.34 10.72 0.68 5.44 0 0 Z " fill="#835C8F" transform="translate(332,114)"/>
<path d="M0 0 C0.66 0 1.32 0 2 0 C4.875 6.625 4.875 6.625 6 10 C6.66 10 7.32 10 8 10 C8 10.66 8 11.32 8 12 C5.6875 11.875 5.6875 11.875 3 11 C0.55040452 7.28337238 -0.39144165 4.43633875 0 0 Z " fill="#604386" transform="translate(303,191)"/>
<path d="M0 0 C1.767528 5.744466 1.11771991 10.44098522 -1 16 C-1.66 15.67 -2.32 15.34 -3 15 C-2.22095672 4.44191344 -2.22095672 4.44191344 0 0 Z " fill="#44217B" transform="translate(294,159)"/>
<path d="M0 0 C1.31534494 3.65857532 0.65468309 6.08026481 -0.4375 9.75 C-0.86869141 11.22726563 -0.86869141 11.22726563 -1.30859375 12.734375 C-1.53675781 13.48203125 -1.76492188 14.2296875 -2 15 C-4 12 -4 12 -3.8125 8.625 C-3.03017106 5.13460935 -2.02785348 2.90952891 0 0 Z M-4 15 C-4 18 -4 18 -4 18 Z " fill="#76648C" transform="translate(380,151)"/>
<path d="M0 0 C-4 2 -4 2 -6.0625 2.8125 C-9.71431226 5.05070751 -11.19045418 9.24171252 -13 13 C-13 10.36 -13 7.72 -13 5 C-12.01 4.67 -11.02 4.34 -10 4 C-9.67 3.01 -9.34 2.02 -9 1 C-6.04335481 -0.4783226 -3.25770263 -0.06032783 0 0 Z " fill="#6D5392" transform="translate(254,111)"/>
<path d="M0 0 C0.66 0 1.32 0 2 0 C3.0625 2.375 3.0625 2.375 4 5 C3.67 5.66 3.34 6.32 3 7 C3.99 6.67 4.98 6.34 6 6 C6.33 8.97 6.66 11.94 7 15 C3.29461076 10.91129463 0 5.70674915 0 0 Z " fill="#5F4586" transform="translate(252,184)"/>
<path d="M0 0 C1.32830615 3.98491845 0.23204404 5.40048548 -1.4375 9.1875 C-1.91058594 10.27417969 -2.38367188 11.36085937 -2.87109375 12.48046875 C-3.42990234 13.72763672 -3.42990234 13.72763672 -4 15 C-5.109375 13.32421875 -5.109375 13.32421875 -6 11 C-5.390625 8.45703125 -5.390625 8.45703125 -4.25 5.8125 C-3.88390625 4.93207031 -3.5178125 4.05164063 -3.140625 3.14453125 C-2 1 -2 1 0 0 Z " fill="#91879D" transform="translate(392,149)"/>
<path d="M0 0 C0.66 0 1.32 0 2 0 C2 0.66 2 1.32 2 2 C2.66 2 3.32 2 4 2 C4 2.66 4 3.32 4 4 C4.99 4 5.98 4 7 4 C7 5.65 7 7.3 7 9 C5.35 9.33 3.7 9.66 2 10 C2.226875 9.4225 2.45375 8.845 2.6875 8.25 C3.27095593 5.89006205 3.27095593 5.89006205 1.5625 3.875 C1.046875 3.25625 0.53125 2.6375 0 2 C0 1.34 0 0.68 0 0 Z " fill="#929DAA" transform="translate(428,146)"/>
<path d="M0 0 C0.66 0 1.32 0 2 0 C1.38461538 7.50769231 1.38461538 7.50769231 -0.5625 10 C-1.036875 10.33 -1.51125 10.66 -2 11 C-3.14947895 7.44706507 -3.0868937 6.20023331 -1.5625 2.6875 C-1.046875 1.800625 -0.53125 0.91375 0 0 Z " fill="#60387A" transform="translate(305,131)"/>
<path d="M0 0 C0.99 0.33 1.98 0.66 3 1 C3 1.66 3 2.32 3 3 C3.66 3 4.32 3 5 3 C4.67 4.65 4.34 6.3 4 8 C3.34 8 2.68 8 2 8 C1.67 8.66 1.34 9.32 1 10 C0.63720544 8.71073008 0.28503302 7.41846728 -0.0625 6.125 C-0.35833984 5.04605469 -0.35833984 5.04605469 -0.66015625 3.9453125 C-1 2 -1 2 0 0 Z " fill="#7BB3B5" transform="translate(427,112)"/>
<path d="M0 0 C4.29 0 8.58 0 13 0 C12.67 0.99 12.34 1.98 12 3 C10.56465159 3.2226746 9.12654475 3.42761906 7.6875 3.625 C6.88699219 3.74101562 6.08648437 3.85703125 5.26171875 3.9765625 C3 4 3 4 0 2 C0 1.34 0 0.68 0 0 Z " fill="#3E2072" transform="translate(268,194)"/>
<path d="M0 0 C0.66 0 1.32 0 2 0 C2.625 2.875 2.625 2.875 3 6 C1.66666667 7.33333333 0.33333333 8.66666667 -1 10 C-1 8.68 -1 7.36 -1 6 C-1.66 6 -2.32 6 -3 6 C-2.42655063 3.13275314 -2.1385485 2.1385485 0 0 Z " fill="#828CA0" transform="translate(430,156)"/>
<path d="M0 0 C0.33 0 0.66 0 1 0 C1.18451025 11.52164009 1.18451025 11.52164009 0 17 C-0.99 17.33 -1.98 17.66 -3 18 C-2.41509121 11.85845775 -1.45933748 5.99320151 0 0 Z " fill="#976FA4" transform="translate(331,148)"/>
<path d="M0 0 C0.33 0.66 0.66 1.32 1 2 C1.66 2.33 2.32 2.66 3 3 C3 4.32 3 5.64 3 7 C0.03 6.67 -2.94 6.34 -6 6 C-4 4 -2 2 0 0 Z " fill="#7BA5A6" transform="translate(419,104)"/>
<path d="M0 0 C0.90105469 0.01804687 1.80210937 0.03609375 2.73046875 0.0546875 C3.41753906 0.07789062 4.10460937 0.10109375 4.8125 0.125 C4.4825 1.115 4.1525 2.105 3.8125 3.125 C2.89017578 3.10759766 2.89017578 3.10759766 1.94921875 3.08984375 C0.73685547 3.07630859 0.73685547 3.07630859 -0.5 3.0625 C-1.30050781 3.05089844 -2.10101563 3.03929688 -2.92578125 3.02734375 C-5.35611334 3.02842145 -5.35611334 3.02842145 -8.1875 4.125 C-8.1875 3.465 -8.1875 2.805 -8.1875 2.125 C-4.87379 -0.08414 -3.8428979 -0.09981553 0 0 Z " fill="#9EC1BF" transform="translate(415.1875,97.875)"/>
<path d="M0 0 C0.33 0.66 0.66 1.32 1 2 C1.66 2.33 2.32 2.66 3 3 C2.01 5.31 1.02 7.62 0 10 C-0.99 10 -1.98 10 -3 10 C-3.33 10.66 -3.66 11.32 -4 12 C-3.33501617 7.61110675 -1.81242323 4.0188515 0 0 Z " fill="#979CA8" transform="translate(392,116)"/>
<path d="M0 0 C0.33 0 0.66 0 1 0 C1.22577402 5.4185766 0.46670113 9.77487721 -1 15 C-1.66 15 -2.32 15 -3 15 C-2.35812082 9.86496656 -1.31727753 5.0056546 0 0 Z " fill="#5B3072" transform="translate(336,176)"/>
<path d="M0 0 C0.66 0.66 1.32 1.32 2 2 C1.828125 4.09375 1.828125 4.09375 1.25 6.5 C0.97929687 7.69109375 0.97929687 7.69109375 0.703125 8.90625 C0 11 0 11 -2 13 C-3.46845421 7.52667068 -2.44038726 4.88077452 0 0 Z " fill="#887295" transform="translate(375,161)"/>
<path d="M0 0 C0.33 0.99 0.66 1.98 1 3 C0.38511719 3.12117188 -0.22976563 3.24234375 -0.86328125 3.3671875 C-1.67152344 3.53476563 -2.47976563 3.70234375 -3.3125 3.875 C-4.11300781 4.03742188 -4.91351563 4.19984375 -5.73828125 4.3671875 C-8.25301118 4.94478999 -8.25301118 4.94478999 -11 7 C-10.8125 5.1875 -10.8125 5.1875 -10 3 C-6.62712264 0.37665094 -4.24348127 -0.36372697 0 0 Z " fill="#9FB2AF" transform="translate(417,108)"/>
<path d="M0 0 C0.33 0.66 0.66 1.32 1 2 C1.66 2.33 2.32 2.66 3 3 C-2.17578125 6.22265625 -2.17578125 6.22265625 -4 7 C-4.99 6.67 -5.98 6.34 -7 6 C-7 5.34 -7 4.68 -7 4 C-6.030625 3.525625 -5.06125 3.05125 -4.0625 2.5625 C-1.19522563 1.29806053 -1.19522563 1.29806053 0 0 Z " fill="#8C769A" transform="translate(428,199)"/>
<path d="M0 0 C3 1 3 1 4 3 C4.99 3.66 5.98 4.32 7 5 C6.236875 5.28875 5.47375 5.5775 4.6875 5.875 C1.84970692 6.96269013 1.84970692 6.96269013 -1 9 C-1.33 7.68 -1.66 6.36 -2 5 C-1.34 5 -0.68 5 0 5 C0 3.35 0 1.7 0 0 Z " fill="#5F428A" transform="translate(313,191)"/>
<path d="M0 0 C0.33 0 0.66 0 1 0 C1 1.65 1 3.3 1 5 C1.66 5 2.32 5 3 5 C3 7.97 3 10.94 3 14 C2.01 14.495 2.01 14.495 1 15 C-0.03590199 9.94997778 -0.10251672 5.12583611 0 0 Z " fill="#754B81" transform="translate(352,172)"/>
<path d="M0 0 C0.66 0 1.32 0 2 0 C1.40895235 4.84659077 0.02055843 8.60748167 -2 13 C-2.33 13 -2.66 13 -3 13 C-2.88490339 11.58249437 -2.75746342 10.16598831 -2.625 8.75 C-2.55539062 7.96109375 -2.48578125 7.1721875 -2.4140625 6.359375 C-1.98492887 3.914123 -1.21399362 2.15163097 0 0 Z " fill="#895795" transform="translate(318,126)"/>
<path d="M0 0 C0.99 0.33 1.98 0.66 3 1 C3 2.65 3 4.3 3 6 C3.66 6 4.32 6 5 6 C4.67 7.65 4.34 9.3 4 11 C3.525625 10.34 3.05125 9.68 2.5625 9 C2.046875 8.34 1.53125 7.68 1 7 C0.67 7 0.34 7 0 7 C0 4.69 0 2.38 0 0 Z " fill="#744A9D" transform="translate(330,185)"/>
<path d="M0 0 C3.42931954 3.7559214 4.56429083 8.23466745 6 13 C5.34 13 4.68 13 4 13 C0.73084444 8.09626665 -0.22450809 5.94946451 0 0 Z " fill="#766297" transform="translate(263,180)"/>
<path d="M0 0 C2 2 2 2 2.1953125 4.1640625 C2.16050781 5.38222656 2.16050781 5.38222656 2.125 6.625 C2.10695313 7.44226563 2.08890625 8.25953125 2.0703125 9.1015625 C2.04710937 9.72804687 2.02390625 10.35453125 2 11 C1.01 11 0.02 11 -1 11 C-0.67 7.37 -0.34 3.74 0 0 Z " fill="#4D2871" transform="translate(293,139)"/>
<path d="M0 0 C0.99 0.66 1.98 1.32 3 2 C1.68 3.65 0.36 5.3 -1 7 C-1.99 6.67 -2.98 6.34 -4 6 C-3.6875 4.125 -3.6875 4.125 -3 2 C-2.01 1.34 -1.02 0.68 0 0 Z " fill="#7D609C" transform="translate(422,196)"/>
<path d="M0 0 C0.33 0.99 0.66 1.98 1 3 C-2.26760563 8.63380282 -2.26760563 8.63380282 -5 10 C-5 8.02 -5 6.04 -5 4 C-4.01 4 -3.02 4 -2 4 C-1.67 3.01 -1.34 2.02 -1 1 C-0.67 0.67 -0.34 0.34 0 0 Z " fill="#664C8F" transform="translate(291,193)"/>
<path d="M0 0 C0.99 0 1.98 0 3 0 C2.47731534 2.76276177 1.89130413 5.3260876 1 8 C0.01 8.33 -0.98 8.66 -2 9 C-2 7.35 -2 5.7 -2 4 C-1.34 4 -0.68 4 0 4 C0 2.68 0 1.36 0 0 Z " fill="#361570" transform="translate(285,180)"/>
<path d="M0 0 C1.32 0 2.64 0 4 0 C4 1.32 4 2.64 4 4 C3.01 4 2.02 4 1 4 C1 5.98 1 7.96 1 10 C-1.56687367 6.1496895 -0.83288724 4.41430237 0 0 Z " fill="#552A7D" transform="translate(308,143)"/>
<path d="M0 0 C2 3 2 3 2 7 C2.66 7 3.32 7 4 7 C4.33 8.32 4.66 9.64 5 11 C3.0625 10.625 3.0625 10.625 1 10 C-0.60725635 6.78548731 -0.05748185 3.56387464 0 0 Z " fill="#502D74" transform="translate(281,133)"/>
<path d="M0 0 C0.33 0 0.66 0 1 0 C1 2.97 1 5.94 1 9 C-3 10 -3 10 -5 9 C-4.360625 8.071875 -3.72125 7.14375 -3.0625 6.1875 C-0.91377907 3.15780057 -0.91377907 3.15780057 0 0 Z " fill="#563684" transform="translate(282,185)"/>
<path d="M0 0 C0.99 0 1.98 0 3 0 C4.61949011 2.57213134 5.04408751 3.67669159 4.625 6.75 C4.41875 7.4925 4.2125 8.235 4 9 C1.49701566 6.06171403 0.53069061 3.82097239 0 0 Z " fill="#593B86" transform="translate(244,167)"/>
<path d="M0 0 C1.45606519 4.52092968 0.27032841 7.51648796 -1 12 C-1.99 12 -2.98 12 -4 12 C-3.52309796 10.37433394 -3.04340334 8.74948689 -2.5625 7.125 C-2.29566406 6.22007812 -2.02882813 5.31515625 -1.75390625 4.3828125 C-1 2 -1 2 0 0 Z " fill="#725990" transform="translate(292,160)"/>
<path d="M0 0 C0.33 0 0.66 0 1 0 C0.25 7.75 0.25 7.75 -2 10 C-2.66 9.34 -3.32 8.68 -4 8 C-3.34 6.02 -2.68 4.04 -2 2 C-1.34 2 -0.68 2 0 2 C0 1.34 0 0.68 0 0 Z " fill="#6B4A8A" transform="translate(324,186)"/>
<path d="M0 0 C2.96052484 3.36423277 3.92289822 6.69159287 5 11 C3.046875 10.2890625 3.046875 10.2890625 1 9 C0.390625 6.8359375 0.390625 6.8359375 0.25 4.375 C0.19328125 3.55773437 0.1365625 2.74046875 0.078125 1.8984375 C0.05234375 1.27195313 0.0265625 0.64546875 0 0 Z " fill="#745596" transform="translate(254,160)"/>
<path d="M0 0 C0.99 0.33 1.98 0.66 3 1 C3 3.64 3 6.28 3 9 C2.01 9 1.02 9 0 9 C0 6.03 0 3.06 0 0 Z " fill="#876192" transform="translate(347,142)"/>
<path d="M0 0 C3.96 0.33 7.92 0.66 12 1 C7.01222852 3.49388574 5.33016752 2.88836125 0 2 C0 1.34 0 0.68 0 0 Z " fill="#664D87" transform="translate(268,205)"/>
<path d="M0 0 C0.99 0 1.98 0 3 0 C2.67 1.32 2.34 2.64 2 4 C1.34 4 0.68 4 0 4 C0 4.66 0 5.32 0 6 C0.66 6.33 1.32 6.66 2 7 C1.01 7 0.02 7 -1 7 C-1 6.34 -1 5.68 -1 5 C-1.66 5 -2.32 5 -3 5 C-1.125 1.125 -1.125 1.125 0 0 Z " fill="#6B3580" transform="translate(355,199)"/>
<path d="M0 0 C1.64826111 2.96687001 2.44271087 5.65626525 3 9 C2.34 9 1.68 9 1 9 C0.67 9.66 0.34 10.32 0 11 C-1.28571429 3.57142857 -1.28571429 3.57142857 0 0 Z " fill="#815B8D" transform="translate(344,182)"/>
<path d="M0 0 C2 3 2 3 1.3125 6.625 C0.879375 7.73875 0.44625 8.8525 0 10 C-0.99 10.33 -1.98 10.66 -3 11 C-2.01 7.37 -1.02 3.74 0 0 Z " fill="#87849B" transform="translate(387,129)"/>
<path d="M0 0 C4.35535069 1.16142685 6.64619703 2.07699505 9 6 C6.03 5.505 6.03 5.505 3 5 C3 4.34 3 3.68 3 3 C2.34 3 1.68 3 1 3 C0.67 2.01 0.34 1.02 0 0 Z " fill="#A5C7C3" transform="translate(423,100)"/>
<path d="M0 0 C2 1.625 2 1.625 4 4 C4.25 7.25 4.25 7.25 4 10 C3.01 10.33 2.02 10.66 1 11 C0.67 7.37 0.34 3.74 0 0 Z " fill="#834C95" transform="translate(350,167)"/>
<path d="M0 0 C0.66 0.33 1.32 0.66 2 1 C2 3.97 2 6.94 2 10 C-0.50298434 7.06171403 -1.46930939 4.82097239 -2 1 C-1.34 0.67 -0.68 0.34 0 0 Z " fill="#6E5898" transform="translate(242,157)"/>
<path d="M0 0 C3.11954738 0.33724836 4.6209965 0.6209965 6.875 2.875 C7.24625 3.57625 7.6175 4.2775 8 5 C7.67 5.99 7.34 6.98 7 8 C6.34 7.67 5.68 7.34 5 7 C4.87625 6.195625 4.7525 5.39125 4.625 4.5625 C4.27432836 1.84016601 4.27432836 1.84016601 1.9375 0.6875 C1.298125 0.460625 0.65875 0.23375 0 0 Z " fill="#9AB2AF" transform="translate(419,111)"/>
<path d="M0 0 C2.125 0.9375 2.125 0.9375 4 2 C2 4 0 6 -2 8 C-2 5.69 -2 3.38 -2 1 C-1.34 0.67 -0.68 0.34 0 0 Z " fill="#956C9D" transform="translate(326,109)"/>
<path d="M0 0 C2.97 0.495 2.97 0.495 6 1 C6 3.31 6 5.62 6 8 C4.62437146 6.71034824 3.29233607 5.37310707 2 4 C2 3.34 2 2.68 2 2 C1.34 2 0.68 2 0 2 C0 1.34 0 0.68 0 0 Z " fill="#6F4581" transform="translate(328,108)"/>
<path d="M0 0 C0.33 0 0.66 0 1 0 C1 2.31 1 4.62 1 7 C-0.98 7.99 -0.98 7.99 -3 9 C-2.44271087 5.65626525 -1.64826111 2.96687001 0 0 Z " fill="#896D93" transform="translate(371,173)"/>
<path d="M0 0 C0.99 0.33 1.98 0.66 3 1 C3.33 3.97 3.66 6.94 4 10 C1.85279101 7.85279101 1.4565779 6.92209857 1 4 C1.33 3.34 1.66 2.68 2 2 C1.01 2.33 0.02 2.66 -1 3 C-0.67 2.01 -0.34 1.02 0 0 Z " fill="#573875" transform="translate(305,171)"/>
<path d="M0 0 C1.9375 1 1.9375 1 4 3 C4.66549451 5.69924572 4.81680763 8.20631637 5 11 C1.71779105 9.35889552 1.25429211 6.30677012 0 3 C0 2.01 0 1.02 0 0 Z " fill="#280E5D" transform="translate(250,155)"/>
<path d="M0 0 C0.99 0 1.98 0 3 0 C1.125 5.75 1.125 5.75 0 8 C-0.66 8 -1.32 8 -2 8 C-1.47731534 5.23723823 -0.89130413 2.6739124 0 0 Z " fill="#5F4072" transform="translate(291,150)"/>
<path d="M0 0 C0.66 0 1.32 0 2 0 C1.5020163 3.73487777 1.12508244 5.81237635 -1 9 C-1.33 7.02 -1.66 5.04 -2 3 C-1.34 3 -0.68 3 0 3 C0 2.01 0 1.02 0 0 Z " fill="#84979F" transform="translate(403,115)"/>
<path d="M0 0 C0.99 0.33 1.98 0.66 3 1 C2.1875 3.4375 2.1875 3.4375 1 6 C0.01 6.33 -0.98 6.66 -2 7 C-2.125 4.625 -2.125 4.625 -2 2 C-1.34 1.34 -0.68 0.68 0 0 Z " fill="#683982" transform="translate(317,106)"/>
<path d="M0 0 C1.4540625 0.0309375 1.4540625 0.0309375 2.9375 0.0625 C3.2675 1.0525 3.5975 2.0425 3.9375 3.0625 C1.0625 3.1875 1.0625 3.1875 -2.0625 3.0625 C-2.7225 2.4025 -3.3825 1.7425 -4.0625 1.0625 C-3.0625 0.0625 -3.0625 0.0625 0 0 Z " fill="#65438A" transform="translate(257.0625,107.9375)"/>
<path d="M0 0 C0.33 0 0.66 0 1 0 C1.33 3.3 1.66 6.6 2 10 C1.01 9.67 0.02 9.34 -1 9 C-1.80967438 6.08517222 -2.21845993 4.53886783 -1.0625 1.6875 C-0.711875 1.130625 -0.36125 0.57375 0 0 Z " fill="#966399" transform="translate(355,183)"/>
<path d="M0 0 C0.99 0 1.98 0 3 0 C2.34 2.97 1.68 5.94 1 9 C0.67 9 0.34 9 0 9 C-0.87890625 2.84765625 -0.87890625 2.84765625 -1 1 C-0.67 0.67 -0.34 0.34 0 0 Z " fill="#835293" transform="translate(339,163)"/>
<path d="M0 0 C0.99 0 1.98 0 3 0 C2.25 4.75 2.25 4.75 0 7 C-0.66 5.35 -1.32 3.7 -2 2 C-1.34 1.34 -0.68 0.68 0 0 Z " fill="#735295" transform="translate(288,150)"/>
<path d="M0 0 C1.32 1.32 2.64 2.64 4 4 C2.02 4.99 2.02 4.99 0 6 C-0.66 4.68 -1.32 3.36 -2 2 C-1.34 1.34 -0.68 0.68 0 0 Z " fill="#562C8A" transform="translate(273,104)"/>
<path d="M0 0 C1.13643966 3.40931897 0.86747764 4.00335456 -0.4375 7.1875 C-0.72496094 7.90292969 -1.01242187 8.61835938 -1.30859375 9.35546875 C-1.53675781 9.89816406 -1.76492188 10.44085938 -2 11 C-3.0625 9.1875 -3.0625 9.1875 -4 7 C-3.67 6.01 -3.34 5.02 -3 4 C-2.34 4 -1.68 4 -1 4 C-0.67 2.68 -0.34 1.36 0 0 Z " fill="#8269A0" transform="translate(306,158)"/>
<path d="M0 0 C2.89932357 2.39509338 3.50168276 4.31245243 4 8 C3.01 8 2.02 8 1 8 C-0.35439668 5.29120665 -0.06501451 2.99066732 0 0 Z " fill="#523B7C" transform="translate(238,150)"/>
<path d="M0 0 C2.79872437 2.52788007 4.45773019 4.20411134 5 8 C3.0625 7.375 3.0625 7.375 1 6 C0.25 2.875 0.25 2.875 0 0 Z " fill="#836998" transform="translate(279,107)"/>
<path d="M0 0 C0.99 0.33 1.98 0.66 3 1 C0.63707344 3.52588702 -0.66462511 4.88820837 -4 6 C-2.84826645 3.53199953 -1.95216435 1.95216435 0 0 Z " fill="#8EA5AB" transform="translate(400,103)"/>
<path d="M0 0 C1.98 0.66 3.96 1.32 6 2 C4.6875 3.5 4.6875 3.5 3 5 C2.01 5 1.02 5 0 5 C0 3.35 0 1.7 0 0 Z " fill="#683481" transform="translate(347,194)"/>
<path d="M0 0 C0.66 0 1.32 0 2 0 C2.1875 2.375 2.1875 2.375 2 5 C1.01 5.66 0.02 6.32 -1 7 C-1.04254356 5.00045254 -1.04080783 2.99958364 -1 1 C-0.67 0.67 -0.34 0.34 0 0 Z " fill="#76678D" transform="translate(425,188)"/>
<path d="M0 0 C0.99 0 1.98 0 3 0 C3.33 2.31 3.66 4.62 4 7 C3.34 7 2.68 7 2 7 C0.5393715 4.35261084 0 3.10551666 0 0 Z " fill="#2D106C" transform="translate(260,180)"/>
<path d="M0 0 C0.66 0.66 1.32 1.32 2 2 C1.625 4.625 1.625 4.625 1 7 C0.01 7 -0.98 7 -2 7 C-1.34 4.69 -0.68 2.38 0 0 Z " fill="#684180" transform="translate(303,174)"/>
<path d="M0 0 C0.33 0 0.66 0 1 0 C1.76173392 4.3164922 2.16063604 7.74433453 1 12 C0.34 11.34 -0.32 10.68 -1 10 C-0.9765625 7.6171875 -0.9765625 7.6171875 -0.625 4.875 C-0.51414062 3.96492187 -0.40328125 3.05484375 -0.2890625 2.1171875 C-0.19367188 1.41851562 -0.09828125 0.71984375 0 0 Z " fill="#6B4D7F" transform="translate(327,166)"/>
<path d="M0 0 C2.50298434 2.93828597 3.46930939 5.17902761 4 9 C2.68 8.34 1.36 7.68 0 7 C0 4.69 0 2.38 0 0 Z " fill="#6E5D99" transform="translate(249,148)"/>
<path d="M0 0 C0.99 0.33 1.98 0.66 3 1 C1.515 4.465 1.515 4.465 0 8 C-0.33 8 -0.66 8 -1 8 C-0.67 5.36 -0.34 2.72 0 0 Z " fill="#633F7D" transform="translate(298,146)"/>
<path d="M0 0 C1.0625 1.8125 1.0625 1.8125 2 4 C1.67 4.99 1.34 5.98 1 7 C0.01 7 -0.98 7 -2 7 C-1.125 2.25 -1.125 2.25 0 0 Z " fill="#7A508E" transform="translate(301,139)"/>
</svg>
